# Blender 3.5.0
# www.blender.org
mtllib sidewinder.mtl
o Plane
v 0.000000 3.889087 7.500000
v 14.849242 0.000000 7.500000
v -14.849242 0.000000 7.500000
v 0.000000 -3.889087 7.500000
v -14.849242 0.000000 7.500000
v 0.000000 3.889087 7.500000
v 14.849242 0.000000 7.500000
v 0.000000 -3.889087 7.500000
v -7.986234 0.000000 -7.500000
v 7.986234 0.000000 -7.500000
v 7.986234 0.000000 -7.500000
v -7.986234 0.000000 -7.500000
vn -0.0000 -0.0000 1.0000
vn 0.2517 0.9609 -0.1151
vn -0.0000 -0.0000 -1.0000
vn 0.2517 -0.9609 -0.1151
vn -0.2517 0.9609 -0.1151
vn -0.2517 -0.9609 -0.1151
vn -0.0000 -0.9680 -0.2510
vn -0.0000 0.9680 -0.2510
vt 0.000000 0.000000
vt 1.000000 0.000000
vt 0.000000 1.000000
vt 1.000000 1.000000
vt 0.000000 1.000000
vt 0.000000 0.000000
vt 1.000000 0.000000
vt 1.000000 1.000000
vt 0.000000 1.000000
vt 0.000000 0.000000
vt 1.000000 0.000000
vt 1.000000 1.000000
s 0
f 1/1/1 4/4/1 2/2/1
f 7/7/2 10/10/2 6/6/2
f 4/4/3 3/3/3 5/5/3 8/8/3
f 1/1/3 2/2/3 7/7/3 6/6/3
f 2/2/3 4/4/3 8/8/3 7/7/3
f 3/3/3 1/1/3 6/6/3 5/5/3
f 10/10/3 12/12/3 9/9/3
f 8/8/4 11/11/4 7/7/4
f 6/6/5 9/9/5 5/5/5
f 5/5/6 12/12/6 8/8/6
f 1/1/1 3/3/1 4/4/1
f 7/7/3 11/11/3 10/10/3
f 10/10/3 11/11/3 12/12/3
f 8/8/7 12/12/7 11/11/7
f 6/6/8 10/10/8 9/9/8
f 5/5/3 9/9/3 12/12/3
o Plane.001
v -3.220000 -1.340000 7.500000
v 3.220000 -1.340000 7.500000
v -3.220000 1.340000 7.500000
v 3.220000 1.340000 7.500000
v -3.220000 1.340000 7.816270
v -3.220000 -1.340000 7.816270
v 3.220000 -1.340000 7.816270
v 3.220000 1.340000 7.816270
vn -0.0000 -0.0000 -1.0000
vn -0.0000 -0.0000 1.0000
vn -0.0000 -1.0000 -0.0000
vn 1.0000 -0.0000 -0.0000
vn -1.0000 -0.0000 -0.0000
vn -0.0000 1.0000 -0.0000
vt 0.000000 0.000000
vt 1.000000 0.000000
vt 0.000000 1.000000
vt 1.000000 1.000000
vt 0.000000 1.000000
vt 0.000000 0.000000
vt 1.000000 0.000000
vt 1.000000 1.000000
s 0
f 15/15/9 14/14/9 13/13/9
f 19/19/10 17/17/10 18/18/10
f 14/14/11 18/18/11 13/13/11
f 16/16/12 19/19/12 14/14/12
f 13/13/13 17/17/13 15/15/13
f 15/15/14 20/20/14 16/16/14
f 15/15/9 16/16/9 14/14/9
f 19/19/10 20/20/10 17/17/10
f 14/14/11 19/19/11 18/18/11
f 16/16/12 20/20/12 19/19/12
f 13/13/13 18/18/13 17/17/13
f 15/15/14 17/17/14 20/20/14
